<svg xmlns="http://www.w3.org/2000/svg" version="1.1" xmlns:xlink="http://www.w3.org/1999/xlink" width="512" height="512" x="0" y="0" viewBox="0 0 682.667 682.667" style="enable-background:new 0 0 512 512" xml:space="preserve" class=""><g><defs><clipPath id="a" clipPathUnits="userSpaceOnUse"><path d="M0 512h512V0H0Z" fill="#de0808" opacity="1" data-original="#000000"></path></clipPath></defs><g clip-path="url(#a)" transform="matrix(1.33333 0 0 -1.33333 0 682.667)"><path d="M0 0c-2.464 36.53-32.97 65.497-70.114 65.497-37.141 0-67.645-28.961-70.115-65.486" style="stroke-width:15;stroke-linecap:round;stroke-linejoin:round;stroke-miterlimit:10;stroke-dasharray:none;stroke-opacity:1" transform="translate(439.042 423.443)" fill="none" stroke="#de0808" stroke-width="15" stroke-linecap="round" stroke-linejoin="round" stroke-miterlimit="10" stroke-dasharray="none" stroke-opacity="" data-original="#000000" opacity="1"></path><path d="M0 0c2.367 19.191 18.772 34.098 38.594 34.098 19.821 0 36.224-14.906 38.593-34.096" style="stroke-width:15;stroke-linecap:round;stroke-linejoin:round;stroke-miterlimit:10;stroke-dasharray:none;stroke-opacity:1" transform="translate(330.334 423.454)" fill="none" stroke="#de0808" stroke-width="15" stroke-linecap="round" stroke-linejoin="round" stroke-miterlimit="10" stroke-dasharray="none" stroke-opacity="" data-original="#000000" opacity="1"></path><path d="M0 0v173.552c0 7 5.675 12.675 12.675 12.675h245.402c7 0 12.675-5.675 12.675-12.675v-186.3c0-7.001-5.675-12.676-12.675-12.676h-24.662" style="stroke-width:15;stroke-linecap:round;stroke-linejoin:round;stroke-miterlimit:10;stroke-dasharray:none;stroke-opacity:1" transform="translate(233.552 237.227)" fill="none" stroke="#de0808" stroke-width="15" stroke-linecap="round" stroke-linejoin="round" stroke-miterlimit="10" stroke-dasharray="none" stroke-opacity="" data-original="#000000" opacity="1"></path><path d="M0 0h-153.521" style="stroke-width:15;stroke-linecap:round;stroke-linejoin:round;stroke-miterlimit:10;stroke-dasharray:none;stroke-opacity:1" transform="translate(431.97 211.804)" fill="none" stroke="#de0808" stroke-width="15" stroke-linecap="round" stroke-linejoin="round" stroke-miterlimit="10" stroke-dasharray="none" stroke-opacity="" data-original="#000000" opacity="1"></path><path d="M0 0c27.284 4.9 45.037 8.845 45.037 8.845v70.981c0 7-5.675 12.675-12.675 12.675H-213.04c-7 0-12.675-5.675-12.675-12.675V8.845s17.812-3.957 45.173-8.869" style="stroke-width:15;stroke-linecap:round;stroke-linejoin:round;stroke-miterlimit:10;stroke-dasharray:none;stroke-opacity:1" transform="translate(459.267 330.953)" fill="none" stroke="#de0808" stroke-width="15" stroke-linecap="round" stroke-linejoin="round" stroke-miterlimit="10" stroke-dasharray="none" stroke-opacity="" data-original="#000000" opacity="1"></path><path d="m0 0 2.025-.312a343.595 343.595 0 0 1 104.197 0c1.051.162 2.097.323 3.137.485" style="stroke-width:15;stroke-linecap:round;stroke-linejoin:round;stroke-miterlimit:10;stroke-dasharray:none;stroke-opacity:1" transform="translate(314.804 324.893)" fill="none" stroke="#de0808" stroke-width="15" stroke-linecap="round" stroke-linejoin="round" stroke-miterlimit="10" stroke-dasharray="none" stroke-opacity="" data-original="#000000" opacity="1"></path><path d="M0 0h-8.637c-6.153 0-11.14 4.987-11.14 11.141v21.783c0 6.153 4.987 11.141 11.14 11.141H0c6.153 0 11.141-4.988 11.141-11.141V11.141C11.141 4.987 6.153 0 0 0Z" style="stroke-width:15;stroke-linecap:round;stroke-linejoin:round;stroke-miterlimit:10;stroke-dasharray:none;stroke-opacity:1" transform="translate(300.89 306.29)" fill="none" stroke="#de0808" stroke-width="15" stroke-linecap="round" stroke-linejoin="round" stroke-miterlimit="10" stroke-dasharray="none" stroke-opacity="" data-original="#000000" opacity="1"></path><path d="M0 0h-8.637c-6.153 0-11.14 4.987-11.14 11.141v21.783c0 6.153 4.987 11.141 11.14 11.141H0c6.153 0 11.141-4.988 11.141-11.141V11.141C11.141 4.987 6.153 0 0 0Z" style="stroke-width:15;stroke-linecap:round;stroke-linejoin:round;stroke-miterlimit:10;stroke-dasharray:none;stroke-opacity:1" transform="translate(445.602 306.29)" fill="none" stroke="#de0808" stroke-width="15" stroke-linecap="round" stroke-linejoin="round" stroke-miterlimit="10" stroke-dasharray="none" stroke-opacity="" data-original="#000000" opacity="1"></path><path d="M0 0c2.362 19.196 18.771 34.107 38.595 34.107 19.821 0 36.225-14.905 38.593-34.095" style="stroke-width:15;stroke-linecap:round;stroke-linejoin:round;stroke-miterlimit:10;stroke-dasharray:none;stroke-opacity:1" transform="translate(104.478 234.703)" fill="none" stroke="#de0808" stroke-width="15" stroke-linecap="round" stroke-linejoin="round" stroke-miterlimit="10" stroke-dasharray="none" stroke-opacity="" data-original="#000000" opacity="1"></path><path d="M0 0c-2.464 36.53-32.97 65.496-70.114 65.496-37.141 0-67.645-28.96-70.115-65.485" style="stroke-width:15;stroke-linecap:round;stroke-linejoin:round;stroke-miterlimit:10;stroke-dasharray:none;stroke-opacity:1" transform="translate(213.186 234.703)" fill="none" stroke="#de0808" stroke-width="15" stroke-linecap="round" stroke-linejoin="round" stroke-miterlimit="10" stroke-dasharray="none" stroke-opacity="" data-original="#000000" opacity="1"></path><path d="M0 0h-245.402c-7 0-12.675 5.675-12.675 12.675v186.301c0 7 5.675 12.674 12.675 12.674H0c7 0 12.675-5.674 12.675-12.674V12.675C12.675 5.675 7 0 0 0Z" style="stroke-width:15;stroke-linecap:round;stroke-linejoin:round;stroke-miterlimit:10;stroke-dasharray:none;stroke-opacity:1" transform="translate(265.773 23.064)" fill="none" stroke="#de0808" stroke-width="15" stroke-linecap="round" stroke-linejoin="round" stroke-miterlimit="10" stroke-dasharray="none" stroke-opacity="" data-original="#000000" opacity="1"></path><path d="M0 0c27.205 4.889 44.896 8.819 44.896 8.819v70.983c0 7-5.674 12.675-12.674 12.675h-245.403c-7 0-12.674-5.675-12.674-12.675V8.819s18.852-4.188 47.561-9.296" style="stroke-width:15;stroke-linecap:round;stroke-linejoin:round;stroke-miterlimit:10;stroke-dasharray:none;stroke-opacity:1" transform="translate(233.552 142.237)" fill="none" stroke="#de0808" stroke-width="15" stroke-linecap="round" stroke-linejoin="round" stroke-miterlimit="10" stroke-dasharray="none" stroke-opacity="" data-original="#000000" opacity="1"></path><path d="M0 0c.686-.106 1.372-.213 2.063-.318a343.589 343.589 0 0 1 104.196 0c1.613.248 3.213.496 4.798.744" style="stroke-width:15;stroke-linecap:round;stroke-linejoin:round;stroke-miterlimit:10;stroke-dasharray:none;stroke-opacity:1" transform="translate(88.912 136.158)" fill="none" stroke="#de0808" stroke-width="15" stroke-linecap="round" stroke-linejoin="round" stroke-miterlimit="10" stroke-dasharray="none" stroke-opacity="" data-original="#000000" opacity="1"></path><path d="M0 0h-8.637c-6.153 0-11.14 4.988-11.14 11.141v21.784c0 6.153 4.987 11.14 11.14 11.14H0c6.153 0 11.141-4.987 11.141-11.14V11.141C11.141 4.988 6.153 0 0 0Z" style="stroke-width:15;stroke-linecap:round;stroke-linejoin:round;stroke-miterlimit:10;stroke-dasharray:none;stroke-opacity:1" transform="translate(75.035 117.549)" fill="none" stroke="#de0808" stroke-width="15" stroke-linecap="round" stroke-linejoin="round" stroke-miterlimit="10" stroke-dasharray="none" stroke-opacity="" data-original="#000000" opacity="1"></path><path d="M0 0h-8.637c-6.153 0-11.14 4.988-11.14 11.141v21.784c0 6.153 4.987 11.14 11.14 11.14H0c6.153 0 11.141-4.987 11.141-11.14V11.141C11.141 4.988 6.153 0 0 0Z" style="stroke-width:15;stroke-linecap:round;stroke-linejoin:round;stroke-miterlimit:10;stroke-dasharray:none;stroke-opacity:1" transform="translate(219.746 117.549)" fill="none" stroke="#de0808" stroke-width="15" stroke-linecap="round" stroke-linejoin="round" stroke-miterlimit="10" stroke-dasharray="none" stroke-opacity="" data-original="#000000" opacity="1"></path><path d="m0 0-32.578 42.907a16.962 16.962 0 0 1-13.475 6.703h-.031a16.962 16.962 0 0 1-13.468-6.652L-92.294.177c-5.691-7.437-4.276-18.081 3.161-23.774 7.436-5.692 18.081-4.278 23.774 3.161l2.316 3.027v-32.832c0-9.257-7.531-16.789-16.789-16.789h-40.788c-9.366 0-16.959-7.593-16.959-16.958 0-9.366 7.593-16.959 16.959-16.959h40.788c27.959 0 50.706 22.747 50.706 50.706v32.514l2.114-2.784c3.335-4.393 8.397-6.704 13.518-6.704 3.574 0 7.178 1.126 10.244 3.453C4.209-18.098 5.664-7.46 0 0Z" style="stroke-width:15;stroke-linecap:round;stroke-linejoin:round;stroke-miterlimit:10;stroke-dasharray:none;stroke-opacity:1" transform="translate(466.51 124.064)" fill="none" stroke="#de0808" stroke-width="15" stroke-linecap="round" stroke-linejoin="round" stroke-miterlimit="10" stroke-dasharray="none" stroke-opacity="" data-original="#000000" opacity="1"></path><path d="M0 0c-23.731-4.219-41.809-25.001-41.809-49.925v-32.514l-2.114 2.785c-3.335 4.392-8.396 6.703-13.517 6.703a16.896 16.896 0 0 1-10.245-3.453c-7.459-5.664-8.914-16.302-3.25-23.762l32.579-42.907a16.956 16.956 0 0 1 13.474-6.702h.031a16.964 16.964 0 0 1 13.468 6.651l32.742 42.781c5.692 7.438 4.277 18.081-3.161 23.774-7.436 5.693-18.081 4.278-23.773-3.16l-2.317-3.027v32.831c0 9.258 7.532 16.789 16.789 16.789h40.789c9.366 0 16.958 7.593 16.958 16.959 0 9.365-7.592 16.958-16.958 16.958H34.553" style="stroke-width:15;stroke-linecap:round;stroke-linejoin:round;stroke-miterlimit:10;stroke-dasharray:none;stroke-opacity:1" transform="translate(141.554 488.16)" fill="none" stroke="#de0808" stroke-width="15" stroke-linecap="round" stroke-linejoin="round" stroke-miterlimit="10" stroke-dasharray="none" stroke-opacity="" data-original="#000000" opacity="1"></path></g></g></svg>